<svg xmlns="http://www.w3.org/2000/svg" xmlns:xlink="http://www.w3.org/1999/xlink" width="1920" height="540" version="1.1" id="svg8"><defs id="defs2"><linearGradient id="linearGradient5133"><stop style="stop-color:#ff61b9;stop-opacity:1" offset="0" id="stop5129"/><stop style="stop-color:#ffb961;stop-opacity:1" offset="1" id="stop5131"/></linearGradient><linearGradient id="linearGradient4449"><stop style="stop-color:#009e61;stop-opacity:1" offset="0" id="stop4445"/><stop style="stop-color:#00619e;stop-opacity:1" offset="1" id="stop4447"/></linearGradient><linearGradient gradientTransform="matrix(1.4255067,0,0,1.4255067,-301.50942,-121.55511)" xlink:href="#linearGradient4449" id="linearGradient5117" gradientUnits="userSpaceOnUse" x1="648.48828" y1="224.67578" x2="648.48828" y2="324.66992"/><linearGradient xlink:href="#linearGradient4449" id="linearGradient5119" gradientUnits="userSpaceOnUse" x1="648.48828" y1="224.67578" x2="648.48828" y2="324.66992"/><linearGradient xlink:href="#linearGradient4449" id="linearGradient5121" gradientUnits="userSpaceOnUse" x1="648.48828" y1="224.67578" x2="648.48828" y2="324.66992"/><linearGradient gradientTransform="matrix(1.4255067,0,0,1.4255067,-301.50942,-121.55511)" xlink:href="#linearGradient4449" id="linearGradient5123" gradientUnits="userSpaceOnUse" x1="1121.4219" y1="224.67578" x2="1121.4219" y2="324.67578"/><linearGradient gradientTransform="matrix(1.4255067,0,0,1.4255067,-301.50942,-121.55511)" xlink:href="#linearGradient4449" id="linearGradient5125" gradientUnits="userSpaceOnUse" x1="1121.4219" y1="224.67578" x2="1121.4219" y2="324.67578"/><linearGradient gradientTransform="matrix(1.4255067,0,0,1.4255067,-301.50942,-121.55511)" xlink:href="#linearGradient4449" id="linearGradient5127" gradientUnits="userSpaceOnUse" x1="1396.584" y1="224.67578" x2="1396.584" y2="324.67578"/><linearGradient xlink:href="#linearGradient5133" id="linearGradient5135" x1="930.7052" y1="214.42966" x2="930.7052" y2="314.42966" gradientUnits="userSpaceOnUse"/><filter style="color-interpolation-filters:sRGB" id="filter4819-7-5" x="-0.095293805" width="1.1905876" y="-1.078041" height="3.1560819"><feGaussianBlur stdDeviation="44.918371" id="feGaussianBlur4821-0-7"/></filter><filter height="1.3149506" y="-0.15747529" width="1.0278403" x="-0.013920146" id="filter1145" style="color-interpolation-filters:sRGB"><feGaussianBlur id="feGaussianBlur1147" stdDeviation="9.3534627"/></filter></defs><g id="layer1"><g id="g47"><path id="path4737-8-4" style="fill:url(#linearGradient5135);fill-opacity:1;stroke:none;stroke-width:.335497;stroke-linecap:square;stroke-linejoin:round;stroke-opacity:.5;paint-order:stroke fill markers;filter:url(#filter4819-7-5)" d="m 357.77163,214.42965 v 23.6035 h 30.9043 v 76.3965 h 38.19336 v -76.3965 h 30.90234 v -23.6035 h -30.90234 -38.19336 z m 114.58789,0 v 23.6035 14.5957 23.6035 14.5957 23.6016 h 38.19336 61.80664 v -23.6016 h -61.80664 v -14.5957 h 61.80664 v -23.6035 h -61.80664 v -14.5957 h 61.80664 v -23.6035 h -61.80664 z m 114.58594,0 v 23.6015 14.5977 23.6016 38.1992 h 38.19336 v -38.1992 c 23.61524,0 38.20313,38.1933 38.20313,38.1933 h -14.58789 v 0.01 h 38.1914 v -0.01 c 0,0.01 0,-38.1933 -38.1914,-38.1933 38.1914,0 38.1914,-30.9004 38.1914,-30.9004 0,0 0,-30.9004 -38.1914,-30.9004 h -23.61524 z m 114.58594,0 v 100 h 23.60351 v -61.8067 l 14.59571,61.8067 h 23.60351 l 14.59571,-61.8067 v 61.8067 h 23.60156 v -100 h -23.60156 l -26.39844,61.8086 -26.39649,-61.8086 z m 114.58789,0 v 23.6035 h 30.9043 v 52.793 h -30.9043 v 23.6035 h 30.9043 38.19336 30.90234 v -23.6035 h -30.90234 v -52.793 h 30.90234 v -23.6035 h -30.90234 -38.19336 z m 114.58594,0 v 100 h 23.60351 v -61.8067 l 52.79496,61.8067 h 23.6015 v -100 h -23.6015 v 61.8086 l -52.79496,-61.8086 z m 152.78517,0 -38.1992,100 h 23.6015 l 9.1211,-26.3985 h 34.5528 l 9.1211,26.3985 h 23.6035 l -38.1992,-100 z m 76.3887,0 v 76.3965 23.6035 h 38.1914 61.8086 v -23.6035 h -61.8086 v -76.3965 z m 114.5859,0 v 76.3965 23.6035 h 38.1914 61.8086 v -23.6035 h -61.8086 v -76.3965 z m 114.5879,0 v 23.6035 h 30.9043 v 52.793 h -30.9043 v 23.6035 h 30.9043 38.1934 30.9023 v -23.6035 h -30.9023 v -52.793 h 30.9023 v -23.6035 h -30.9023 -38.1934 z m -763.91408,23.6015 h 23.61524 c 14.58873,0 14.58789,7.2989 14.58789,7.2989 0,0 8.3e-4,7.2988 -14.58789,7.2988 h -23.61524 z m 470.15238,0 9.1211,26.3985 h -18.2422 z" transform="matrix(1.4255067,0,0,1.4255067,-356.33039,-106.94916)"/><path id="path1006" style="fill:#000;fill-opacity:1;stroke:none;stroke-width:.478253;stroke-linecap:square;stroke-linejoin:round;stroke-opacity:.5;paint-order:stroke fill markers;filter:url(#filter1145)" d="m 153.67547,198.72172 v 33.64698 h 44.05428 v 108.90369 h 54.4449 V 232.3687 h 44.05149 v -33.64698 h -44.05149 -54.4449 z m 163.3458,0 v 33.64698 20.80626 33.64698 20.80627 33.64418 h 54.44489 88.10578 v -33.64418 h -88.10578 v -20.80627 h 88.10578 V 253.17496 H 371.46616 V 232.3687 h 88.10578 v -33.64698 h -88.10578 z m 163.34303,0 v 33.64418 20.80906 33.64419 54.45324 h 54.44489 v -54.45324 c 33.66368,0 54.45882,54.44489 54.45882,54.44489 h -20.79514 v 0.009 h 54.4421 v -0.009 c 0,0.009 0,-54.44489 -54.4421,-54.44489 54.4421,0 54.4421,-44.04872 54.4421,-44.04872 0,0 0,-44.04871 -54.4421,-44.04871 h -33.66368 z m 163.34302,0 v 142.55067 h 33.64696 v -88.10578 l 20.80629,88.10578 h 33.64696 l 20.80628,-88.10578 v 88.10578 h 33.64418 V 198.72172 h -33.64418 l -37.63115,88.10857 -37.62838,-88.10857 z m 163.34581,0 v 33.64698 h 44.05428 v 75.25673 h -44.05428 v 33.64696 h 44.05428 54.4449 44.05149 V 307.62543 H 905.55231 V 232.3687 h 44.05149 v -33.64698 h -44.05149 -54.4449 z m 163.34302,0 v 142.55067 h 33.64695 v -88.10578 l 75.2595,88.10578 h 33.6442 V 198.72172 h -33.6442 v 88.10857 l -75.2595,-88.10857 z m 217.79625,0 -54.4532,142.55067 h 33.6441 l 13.0022,-37.63115 h 49.2552 l 13.0022,37.63115 h 33.647 l -54.4533,-142.55067 z m 108.8926,0 v 108.90371 33.64696 h 54.4421 88.1086 v -33.64696 h -88.1086 V 198.72172 Z m 163.343,0 v 108.90371 33.64696 h 54.4421 88.1086 v -33.64696 h -88.1086 V 198.72172 Z m 163.3458,0 v 33.64698 h 44.0543 v 75.25673 h -44.0543 v 33.64696 h 44.0543 54.4449 44.0515 V 307.62543 H 1722.273 V 232.3687 h 44.0515 v -33.64698 h -44.0515 -54.4449 z M 534.80919,232.3659 h 33.66368 c 20.79633,0 20.79514,10.40453 20.79514,10.40453 0,0 10e-4,10.40453 -20.79514,10.40453 h -33.66368 z m 670.20531,0 13.0022,37.63115 h -26.0044 z"/><g id="g1139"><path id="rect2146-3-6-5-3-6-8" style="fill:#fff;fill-opacity:1;stroke:none;stroke-width:.478253;stroke-linecap:square;stroke-linejoin:round;stroke-opacity:.5;paint-order:stroke fill markers" d="m 153.67547,198.72172 v 33.64698 h 44.05428 v 108.90369 h 54.4449 V 232.3687 h 44.05149 v -33.64698 h -44.05149 -54.4449 z m 163.3458,0 v 33.64698 20.80626 33.64698 20.80627 33.64418 h 54.44489 88.10578 v -33.64418 h -88.10578 v -20.80627 h 88.10578 V 253.17496 H 371.46616 V 232.3687 h 88.10578 v -33.64698 h -88.10578 z m 163.34303,0 v 33.64418 20.80906 33.64419 54.45324 h 54.44489 v -54.45324 c 33.66368,0 54.45882,54.44489 54.45882,54.44489 h -20.79514 v 0.009 h 54.4421 v -0.009 c 0,0.009 0,-54.44489 -54.4421,-54.44489 54.4421,0 54.4421,-44.04872 54.4421,-44.04872 0,0 0,-44.04871 -54.4421,-44.04871 h -33.66368 z m 163.34302,0 v 142.55067 h 33.64696 v -88.10578 l 20.80629,88.10578 h 33.64696 l 20.80628,-88.10578 v 88.10578 h 33.64418 V 198.72172 h -33.64418 l -37.63115,88.10857 -37.62838,-88.10857 z m 163.34581,0 v 33.64698 h 44.05428 v 75.25673 h -44.05428 v 33.64696 h 44.05428 54.4449 44.05149 V 307.62543 H 905.55231 V 232.3687 h 44.05149 v -33.64698 h -44.05149 -54.4449 z m 163.34302,0 v 142.55067 h 33.64695 v -88.10578 l 75.2595,88.10578 h 33.6442 V 198.72172 h -33.6442 v 88.10857 l -75.2595,-88.10857 z m 217.79625,0 -54.4532,142.55067 h 33.6441 l 13.0022,-37.63115 h 49.2552 l 13.0022,37.63115 h 33.647 l -54.4533,-142.55067 z m 108.8926,0 v 108.90371 33.64696 h 54.4421 88.1086 v -33.64696 h -88.1086 V 198.72172 Z m 163.343,0 v 108.90371 33.64696 h 54.4421 88.1086 v -33.64696 h -88.1086 V 198.72172 Z m 163.3458,0 v 33.64698 h 44.0543 v 75.25673 h -44.0543 v 33.64696 h 44.0543 54.4449 44.0515 V 307.62543 H 1722.273 V 232.3687 h 44.0515 v -33.64698 h -44.0515 -54.4449 z M 534.80919,232.3659 h 33.66368 c 20.79633,0 20.79514,10.40453 20.79514,10.40453 0,0 10e-4,10.40453 -20.79514,10.40453 h -33.66368 z m 670.20531,0 13.0022,37.63115 h -26.0044 z"/><path id="rect4544-4-8-2" style="opacity:.382;fill:url(#linearGradient5117);fill-opacity:1;stroke:none;stroke-width:1.82171;stroke-linecap:square;stroke-linejoin:round;stroke-opacity:.5;paint-order:stroke fill markers" d="m 480.3643,198.72172 54.44489,54.44489 V 232.3659 h 33.66368 c 20.79633,0 20.79514,10.40453 20.79514,10.40453 0,0 10e-4,10.40453 -20.79514,10.40453 h -33.65533 l 88.09743,88.09743 v -0.009 c 0,0.009 0,-54.44489 -54.4421,-54.44489 54.4421,0 54.4421,-44.04872 54.4421,-44.04872 0,0 0,-44.04871 -54.4421,-44.04871 h -33.66368 z m 163.34302,38.75596 v 103.79471 h 33.64696 v -70.14773 z m 39.19866,39.19866 15.25459,64.59605 h 33.64696 l 2.99858,-12.69592 z"/><g transform="matrix(1.4255067,0,0,1.4255067,-301.50942,-121.55511)" id="g4607-7-5" style="fill:url(#linearGradient5121);fill-opacity:1"><path d="m 548.48828,224.67578 38.19336,38.19336 v -14.5918 h 23.61524 c 14.58873,0 14.58789,7.29883 14.58789,7.29883 0,0 8.2e-4,7.29883 -14.58789,7.29883 H 586.6875 l 61.80078,61.80078 v -0.006 c 0,0.006 0,-38.19336 -38.1914,-38.19336 21.8787,0 31.21352,-10.13782 35.20507,-18.80078 l -43.00195,-43 h -15.81836 z m 114.58594,60.57227 v 39.42773 h 23.60351 v -15.82422 z m 37.82031,37.82031 0.37891,1.60742 h 1.22851 z" style="opacity:.382;fill:url(#linearGradient5119);fill-opacity:1;stroke:none;stroke-width:1.00463;stroke-linecap:square;stroke-linejoin:round;stroke-opacity:.5;paint-order:stroke fill markers" id="rect4544-1-0-2"/></g><path id="rect4544-5-0-9" style="opacity:.382;fill:url(#linearGradient5123);fill-opacity:1;stroke:none;stroke-width:1.82171;stroke-linecap:square;stroke-linejoin:round;stroke-opacity:.5;paint-order:stroke fill markers" d="m 1188.1924,198.72172 -9.302,24.35612 21.8003,21.80023 4.3238,-12.51217 8.8872,25.72317 49.5335,49.53356 -41.5986,-108.90091 z m 108.8926,17.96361 v 90.9401 33.64696 h 54.4421 70.1449 l -33.6469,-33.64696 h -36.498 v -36.49799 z"/><path id="rect4544-3-0-9-9" style="opacity:.382;fill:url(#linearGradient5125);fill-opacity:1;stroke:none;stroke-width:1.43211;stroke-linecap:square;stroke-linejoin:round;stroke-opacity:.5;paint-order:stroke fill markers" d="m 1188.1924,198.72172 -9.3271,24.42016 21.8031,21.80301 4.3461,-12.57899 8.9345,25.86237 49.542,49.54193 -41.6544,-109.04848 z m 108.8926,65.6457 v 43.25801 33.64696 h 54.4421 22.46 z"/><path id="rect4544-3-6-0-1" style="opacity:.382;fill:url(#linearGradient5127);fill-opacity:1;stroke:none;stroke-width:1.43211;stroke-linecap:square;stroke-linejoin:round;stroke-opacity:.5;paint-order:stroke fill markers" d="m 1623.7738,198.72172 v 33.64698 h 33.6469 z m 44.0543,44.05429 v 64.84942 h -12.1446 l 33.6469,33.64696 h 32.9426 44.0515 l -33.647,-33.64696 H 1722.273 V 297.2209 Z"/></g></g></g></svg>